<mxfile host="Electron" modified="2024-04-12T08:14:42.609Z" agent="Mozilla/5.0 (Windows NT 10.0; Win64; x64) AppleWebKit/537.36 (KHTML, like Gecko) draw.io/24.1.0 Chrome/120.0.6099.109 Electron/28.1.0 Safari/537.36" etag="EVblpytM5_JY1bmsLKmb" version="24.1.0" type="device">
  <diagram name="Page-1" id="HByxfb4U70ItN2QN7Kc9">
    <mxGraphModel dx="521" dy="621" grid="1" gridSize="10" guides="1" tooltips="1" connect="1" arrows="1" fold="1" page="1" pageScale="1" pageWidth="850" pageHeight="1100" math="0" shadow="0">
      <root>
        <mxCell id="0" />
        <mxCell id="1" parent="0" />
        <mxCell id="JuEot-1AL5PgMirO-TRV-6" style="edgeStyle=orthogonalEdgeStyle;rounded=0;orthogonalLoop=1;jettySize=auto;html=1;exitX=0.5;exitY=1;exitDx=0;exitDy=0;" edge="1" parent="1" source="JuEot-1AL5PgMirO-TRV-1" target="JuEot-1AL5PgMirO-TRV-2">
          <mxGeometry relative="1" as="geometry" />
        </mxCell>
        <mxCell id="JuEot-1AL5PgMirO-TRV-1" value="" style="ellipse;fillColor=strokeColor;html=1;" vertex="1" parent="1">
          <mxGeometry x="60" y="50" width="30" height="30" as="geometry" />
        </mxCell>
        <mxCell id="JuEot-1AL5PgMirO-TRV-2" value="Search Patient" style="swimlane;childLayout=stackLayout;horizontal=1;startSize=50;horizontalStack=0;rounded=1;fontSize=14;fontStyle=0;strokeWidth=2;resizeParent=0;resizeLast=1;shadow=0;dashed=0;align=center;arcSize=4;whiteSpace=wrap;html=1;" vertex="1" parent="1">
          <mxGeometry x="20" y="160" width="160" height="120" as="geometry" />
        </mxCell>
        <mxCell id="JuEot-1AL5PgMirO-TRV-3" value="+PatientId" style="align=left;strokeColor=none;fillColor=none;spacingLeft=4;fontSize=12;verticalAlign=top;resizable=0;rotatable=0;part=1;html=1;" vertex="1" parent="JuEot-1AL5PgMirO-TRV-2">
          <mxGeometry y="50" width="160" height="70" as="geometry" />
        </mxCell>
        <mxCell id="JuEot-1AL5PgMirO-TRV-4" value="View Medical History" style="swimlane;childLayout=stackLayout;horizontal=1;startSize=50;horizontalStack=0;rounded=1;fontSize=14;fontStyle=0;strokeWidth=2;resizeParent=0;resizeLast=1;shadow=0;dashed=0;align=center;arcSize=4;whiteSpace=wrap;html=1;" vertex="1" parent="1">
          <mxGeometry x="180" y="310" width="160" height="120" as="geometry" />
        </mxCell>
        <mxCell id="JuEot-1AL5PgMirO-TRV-5" value="+PatientId" style="align=left;strokeColor=none;fillColor=none;spacingLeft=4;fontSize=12;verticalAlign=top;resizable=0;rotatable=0;part=1;html=1;" vertex="1" parent="JuEot-1AL5PgMirO-TRV-4">
          <mxGeometry y="50" width="160" height="70" as="geometry" />
        </mxCell>
        <mxCell id="JuEot-1AL5PgMirO-TRV-7" style="edgeStyle=orthogonalEdgeStyle;rounded=0;orthogonalLoop=1;jettySize=auto;html=1;exitX=1;exitY=0.5;exitDx=0;exitDy=0;entryX=0.5;entryY=0;entryDx=0;entryDy=0;" edge="1" parent="1" source="JuEot-1AL5PgMirO-TRV-3" target="JuEot-1AL5PgMirO-TRV-4">
          <mxGeometry relative="1" as="geometry" />
        </mxCell>
        <mxCell id="JuEot-1AL5PgMirO-TRV-8" value="Create New Patient" style="swimlane;childLayout=stackLayout;horizontal=1;startSize=50;horizontalStack=0;rounded=1;fontSize=14;fontStyle=0;strokeWidth=2;resizeParent=0;resizeLast=1;shadow=0;dashed=0;align=center;arcSize=4;whiteSpace=wrap;html=1;" vertex="1" parent="1">
          <mxGeometry x="270" y="60" width="160" height="120" as="geometry" />
        </mxCell>
        <mxCell id="JuEot-1AL5PgMirO-TRV-9" value="+PatientId&lt;div&gt;+Name&lt;/div&gt;&lt;div&gt;+...&lt;/div&gt;" style="align=left;strokeColor=none;fillColor=none;spacingLeft=4;fontSize=12;verticalAlign=top;resizable=0;rotatable=0;part=1;html=1;" vertex="1" parent="JuEot-1AL5PgMirO-TRV-8">
          <mxGeometry y="50" width="160" height="70" as="geometry" />
        </mxCell>
        <mxCell id="JuEot-1AL5PgMirO-TRV-11" style="edgeStyle=orthogonalEdgeStyle;rounded=0;orthogonalLoop=1;jettySize=auto;html=1;exitX=1;exitY=0;exitDx=0;exitDy=0;entryX=0.006;entryY=0.433;entryDx=0;entryDy=0;entryPerimeter=0;" edge="1" parent="1" source="JuEot-1AL5PgMirO-TRV-3" target="JuEot-1AL5PgMirO-TRV-8">
          <mxGeometry relative="1" as="geometry" />
        </mxCell>
        <mxCell id="JuEot-1AL5PgMirO-TRV-12" style="edgeStyle=orthogonalEdgeStyle;rounded=0;orthogonalLoop=1;jettySize=auto;html=1;exitX=0.5;exitY=1;exitDx=0;exitDy=0;entryX=0.5;entryY=0;entryDx=0;entryDy=0;" edge="1" parent="1" source="JuEot-1AL5PgMirO-TRV-9" target="JuEot-1AL5PgMirO-TRV-4">
          <mxGeometry relative="1" as="geometry" />
        </mxCell>
        <mxCell id="JuEot-1AL5PgMirO-TRV-13" value="&lt;span style=&quot;color: rgb(13, 13, 13); font-family: SÃ¶hne, ui-sans-serif, system-ui, -apple-system, &amp;quot;Segoe UI&amp;quot;, Roboto, Ubuntu, Cantarell, &amp;quot;Noto Sans&amp;quot;, sans-serif, &amp;quot;Helvetica Neue&amp;quot;, Arial, &amp;quot;Apple Color Emoji&amp;quot;, &amp;quot;Segoe UI Emoji&amp;quot;, &amp;quot;Segoe UI Symbol&amp;quot;, &amp;quot;Noto Color Emoji&amp;quot;; font-size: 16px; text-align: left; white-space-collapse: preserve; background-color: rgb(255, 255, 255);&quot;&gt;Update Medical Records&lt;/span&gt;" style="swimlane;childLayout=stackLayout;horizontal=1;startSize=50;horizontalStack=0;rounded=1;fontSize=14;fontStyle=0;strokeWidth=2;resizeParent=0;resizeLast=1;shadow=0;dashed=0;align=center;arcSize=4;whiteSpace=wrap;html=1;" vertex="1" parent="1">
          <mxGeometry x="30" y="510" width="140" height="120" as="geometry" />
        </mxCell>
        <mxCell id="JuEot-1AL5PgMirO-TRV-14" value="+PatientID&lt;div&gt;+TestID&lt;/div&gt;" style="align=left;strokeColor=none;fillColor=none;spacingLeft=4;fontSize=12;verticalAlign=top;resizable=0;rotatable=0;part=1;html=1;" vertex="1" parent="JuEot-1AL5PgMirO-TRV-13">
          <mxGeometry y="50" width="140" height="70" as="geometry" />
        </mxCell>
        <mxCell id="JuEot-1AL5PgMirO-TRV-16" style="edgeStyle=orthogonalEdgeStyle;rounded=0;orthogonalLoop=1;jettySize=auto;html=1;exitX=0.5;exitY=1;exitDx=0;exitDy=0;" edge="1" parent="1" source="JuEot-1AL5PgMirO-TRV-5" target="JuEot-1AL5PgMirO-TRV-13">
          <mxGeometry relative="1" as="geometry" />
        </mxCell>
        <mxCell id="JuEot-1AL5PgMirO-TRV-17" value="Add New Record" style="swimlane;childLayout=stackLayout;horizontal=1;startSize=50;horizontalStack=0;rounded=1;fontSize=14;fontStyle=0;strokeWidth=2;resizeParent=0;resizeLast=1;shadow=0;dashed=0;align=center;arcSize=4;whiteSpace=wrap;html=1;" vertex="1" parent="1">
          <mxGeometry x="265" y="520" width="160" height="120" as="geometry" />
        </mxCell>
        <mxCell id="JuEot-1AL5PgMirO-TRV-18" value="+PatientID&lt;br&gt;&lt;div&gt;+DoctorID&lt;/div&gt;&lt;div&gt;+TestID&lt;/div&gt;" style="align=left;strokeColor=none;fillColor=none;spacingLeft=4;fontSize=12;verticalAlign=top;resizable=0;rotatable=0;part=1;html=1;" vertex="1" parent="JuEot-1AL5PgMirO-TRV-17">
          <mxGeometry y="50" width="160" height="70" as="geometry" />
        </mxCell>
        <mxCell id="JuEot-1AL5PgMirO-TRV-20" style="edgeStyle=orthogonalEdgeStyle;rounded=0;orthogonalLoop=1;jettySize=auto;html=1;exitX=1;exitY=0.25;exitDx=0;exitDy=0;entryX=0.5;entryY=0;entryDx=0;entryDy=0;" edge="1" parent="1" source="JuEot-1AL5PgMirO-TRV-14" target="JuEot-1AL5PgMirO-TRV-17">
          <mxGeometry relative="1" as="geometry" />
        </mxCell>
        <mxCell id="JuEot-1AL5PgMirO-TRV-21" value="" style="ellipse;html=1;shape=endState;fillColor=#000000;strokeColor=#ff0000;" vertex="1" parent="1">
          <mxGeometry x="330" y="700" width="30" height="30" as="geometry" />
        </mxCell>
        <mxCell id="JuEot-1AL5PgMirO-TRV-22" style="edgeStyle=orthogonalEdgeStyle;rounded=0;orthogonalLoop=1;jettySize=auto;html=1;exitX=0.5;exitY=1;exitDx=0;exitDy=0;" edge="1" parent="1" source="JuEot-1AL5PgMirO-TRV-18" target="JuEot-1AL5PgMirO-TRV-21">
          <mxGeometry relative="1" as="geometry" />
        </mxCell>
      </root>
    </mxGraphModel>
  </diagram>
</mxfile>
